<?xml version="1.0" encoding="utf-8"?>
<!-- Generator: Adobe Illustrator 15.0.0, SVG Export Plug-In . SVG Version: 6.00 Build 0)  -->
<!DOCTYPE svg PUBLIC "-//W3C//DTD SVG 1.1//EN" "http://www.w3.org/Graphics/SVG/1.1/DTD/svg11.dtd">
<svg version="1.1" id="go-rune" xmlns="http://www.w3.org/2000/svg" xmlns:xlink="http://www.w3.org/1999/xlink" x="0px" y="0px"
	 width="24px" height="10.125px" viewBox="0 0 24 10.125" enable-background="new 0 0 24 10.125" xml:space="preserve">
<g>
	<path d="M21.477,4.735c0.25-0.377,0.43-0.568,0.537-0.568c0.01,0,0.022,0,0.033,0.005c0.01,0.011,0.016,0.015,0.021,0.015
		c0.035,0.035,0.102,0.082,0.191,0.149c0.125,0.084,0.223,0.159,0.293,0.198c0.185,0.134,0.278,0.221,0.278,0.277
		c0,0.055-0.132,0.285-0.392,0.697C22.25,5.792,22.101,5.94,21.984,5.94c-0.027,0-0.044,0-0.058,0l-0.488-0.269L21.14,5.496
		c-0.015-0.015-0.024-0.038-0.024-0.063C21.116,5.318,21.233,5.089,21.477,4.735z"/>
</g>
<g>
	<path d="M1.361,4.715C1.61,4.338,1.79,4.146,1.896,4.146c0.016,0,0.027,0,0.037,0.004c0.01,0.012,0.018,0.016,0.02,0.016
		c0.039,0.035,0.099,0.081,0.19,0.149c0.122,0.084,0.22,0.159,0.298,0.198c0.183,0.134,0.273,0.221,0.273,0.277
		c0,0.055-0.129,0.285-0.391,0.697C2.138,5.771,1.982,5.92,1.866,5.92c-0.021,0-0.041,0-0.053,0L1.319,5.651L1.024,5.476
		C1.007,5.461,1,5.438,1,5.412C1,5.298,1.122,5.068,1.361,4.715z"/>
</g>
<g>
	<path d="M5.621,5.5c0.322-0.051,0.556-0.119,0.702-0.205l0.49-0.328c0.172-0.117,0.355-0.262,0.55-0.434
		c0.196-0.17,0.403-0.365,0.622-0.584C8.4,3.519,8.708,3.117,8.905,2.745c0.099-0.182,0.183-0.416,0.251-0.703
		c0.018-0.064,0.03-0.138,0.039-0.222c0.009-0.084,0.014-0.167,0.014-0.248c0-0.124-0.014-0.252-0.039-0.381
		C9.161,1.157,9.155,1.116,9.15,1.069C9.146,1.022,9.144,0.981,9.144,0.947c0-0.163,0.047-0.274,0.142-0.332
		C9.38,0.557,9.472,0.528,9.562,0.528c0.078,0,0.162,0.02,0.254,0.058c0.092,0.039,0.138,0.102,0.138,0.188
		c0,0.047-0.008,0.095-0.025,0.142C9.891,1.043,9.872,1.157,9.872,1.256c0.004,0.042,0.006,0.074,0.006,0.096l-0.18,0.909
		c-0.026,0.197-0.116,0.432-0.27,0.702C9.24,3.307,8.901,3.745,8.411,4.277C7.92,4.811,7.463,5.219,7.04,5.502
		C6.954,5.562,6.823,5.648,6.648,5.76C6.58,5.803,6.513,5.844,6.449,5.889c-0.15,0.084-0.407,0.16-0.771,0.225
		c0,0.176-0.004,0.41-0.013,0.699c-0.008,0.289-0.012,0.49-0.012,0.602c0,0.125,0.004,0.35,0.012,0.674
		c0.009,0.324,0.013,0.521,0.013,0.59c0,0.086,0.058,0.256,0.172,0.51c0.022,0.051,0.034,0.094,0.034,0.127
		c0,0.172-0.204,0.258-0.611,0.258c-0.351,0-0.572-0.037-0.663-0.115C4.549,9.402,4.519,9.338,4.519,9.264
		c0-0.016,0.007-0.049,0.022-0.096c0.015-0.047,0.036-0.092,0.064-0.137c0.027-0.043,0.067-0.09,0.119-0.141
		c0.086-0.1,0.129-0.17,0.129-0.213V6.332c0-0.209,0-0.492,0-0.85c0-0.355,0-0.604,0-0.74l0.032-1.327V1.87
		c0-0.164-0.015-0.312-0.044-0.448c-0.03-0.135-0.08-0.261-0.148-0.376C4.667,0.998,4.654,0.957,4.654,0.921
		c0-0.154,0.228-0.23,0.683-0.23c0.43,0,0.645,0.062,0.645,0.187c0,0.039-0.021,0.084-0.061,0.136
		c-0.179,0.21-0.268,0.409-0.268,0.599v0.761v0.205v0.245v0.85C5.88,3.595,6.104,3.498,6.326,3.376
		c0.221-0.12,0.4-0.254,0.534-0.403c0.136-0.147,0.265-0.314,0.387-0.499C7.369,2.29,7.43,2.096,7.43,1.894
		c0-0.395-0.045-0.723-0.135-0.979c-0.013-0.034-0.02-0.066-0.02-0.097c0-0.193,0.24-0.29,0.722-0.29
		c0.296,0,0.444,0.08,0.444,0.237c0,0.053-0.011,0.103-0.033,0.149C8.302,1.168,8.218,1.411,8.158,1.642
		C8.106,1.891,8.011,2.17,7.872,2.48c-0.14,0.31-0.388,0.618-0.744,0.927C6.96,3.548,6.796,3.679,6.635,3.796
		C6.474,3.916,6.345,4,6.249,4.049C6.152,4.098,6.046,4.141,5.933,4.18c-0.113,0.039-0.207,0.066-0.28,0.084
		c0,0.078-0.001,0.154-0.003,0.229C5.647,4.568,5.635,4.67,5.614,4.799c-0.009,0.09-0.016,0.158-0.02,0.205
		C5.59,5.051,5.588,5.096,5.588,5.141c0,0.068,0.002,0.123,0.006,0.164C5.599,5.346,5.607,5.41,5.621,5.5z"/>
	<path d="M19.855,8.73c0.15,0.055,0.272,0.096,0.367,0.117c0.094,0.025,0.174,0.037,0.238,0.037c0.039-0.01,0.059,0.002,0.059,0.031
		c0,0.043-0.054,0.143-0.161,0.297c-0.151,0.197-0.376,0.318-0.677,0.359c-0.025,0.006-0.064,0.008-0.116,0.008
		c-0.249,0-0.487-0.117-0.714-0.348L18.528,8.51l-0.696-1.629l-0.747-1.732l-0.457-1.057c-0.52-1.129-0.82-1.708-0.902-1.74
		c-0.068-0.025-0.199,0.177-0.392,0.606l-0.58,1.229c-0.215,0.455-0.397,0.838-0.547,1.148c-0.069,0.141-0.193,0.393-0.374,0.752
		c-0.116,0.24-0.281,0.57-0.496,0.992c-0.167,0.326-0.333,0.646-0.496,0.959c-0.335,0.641-0.595,1.096-0.779,1.367
		c-0.061,0.098-0.191,0.146-0.393,0.146c-0.06,0-0.107-0.002-0.142-0.006c-0.219-0.016-0.329-0.125-0.329-0.322
		c0-0.055,0.004-0.102,0.01-0.141c0.006-0.039,0.1-0.129,0.28-0.271c0.181-0.141,0.317-0.273,0.412-0.393
		C12,8.275,12.182,7.955,12.448,7.467l0.889-1.732c0.052-0.107,0.159-0.33,0.322-0.67c0.164-0.34,0.267-0.553,0.31-0.639
		c0.103-0.223,0.208-0.445,0.315-0.669c0.317-0.688,0.56-1.244,0.728-1.675c0.116-0.305,0.174-0.536,0.174-0.694
		c0-0.125-0.037-0.207-0.109-0.246c-0.138-0.073-0.207-0.175-0.207-0.309c0-0.03,0.005-0.07,0.016-0.123
		c0.011-0.052,0.134-0.077,0.371-0.077c0.231,0,0.382-0.02,0.451-0.058c0.12-0.047,0.367,0.337,0.74,1.153
		c0.082,0.172,0.21,0.455,0.387,0.85c0.077,0.168,0.211,0.473,0.405,0.915c0.146,0.331,0.292,0.66,0.438,0.986
		c0.253,0.584,0.468,1.072,0.644,1.469c0.236,0.523,0.444,0.98,0.625,1.371C19.359,8.195,19.662,8.664,19.855,8.73z"/>
</g>
</svg>
